<svg width="118" height="91" viewBox="0 0 118 91" fill="none" xmlns="http://www.w3.org/2000/svg">
<path d="M15.5758 70.0293C16.2319 70.0293 16.7567 70.2343 17.1503 70.6444C17.5439 71.0544 17.7407 71.6011 17.7407 72.2845V88.7155C17.7407 89.3989 17.5439 89.9554 17.1503 90.3849C16.7567 90.795 16.2319 91 15.5758 91C14.9198 91 14.395 90.795 14.0014 90.3849C13.6265 89.9749 13.4391 89.4184 13.4391 88.7155V82.1548H4.30163V88.7155C4.30163 89.3989 4.10482 89.9554 3.71121 90.3849C3.3176 90.795 2.80215 91 2.16487 91C1.50885 91 0.984033 90.795 0.59042 90.3849C0.196806 89.9749 0 89.4184 0 88.7155V72.2845C0 71.6011 0.196806 71.0544 0.59042 70.6444C0.984033 70.2343 1.50885 70.0293 2.16487 70.0293C2.82089 70.0293 3.33634 70.2343 3.71121 70.6444C4.10482 71.0544 4.30163 71.6011 4.30163 72.2845V78.523H13.4391V72.2845C13.4391 71.6011 13.6265 71.0544 14.0014 70.6444C14.395 70.2343 14.9198 70.0293 15.5758 70.0293Z" fill="#1996FC"/>
<path d="M25.9921 90.8243C25.3361 90.8243 24.83 90.6388 24.4739 90.2678C24.1177 89.8968 23.9397 89.3696 23.9397 88.6862V72.3138C23.9397 71.6304 24.1177 71.1032 24.4739 70.7322C24.83 70.3612 25.3361 70.1757 25.9921 70.1757H35.9449C37.3319 70.1757 38.0254 70.7615 38.0254 71.9331C38.0254 73.1241 37.3319 73.7197 35.9449 73.7197H28.2132V78.5523H35.3826C36.7696 78.5523 37.4631 79.1478 37.4631 80.3389C37.4631 81.5105 36.7696 82.0962 35.3826 82.0962H28.2132V87.2803H35.9449C37.3319 87.2803 38.0254 87.8759 38.0254 89.0669C38.0254 90.2385 37.3319 90.8243 35.9449 90.8243H25.9921Z" fill="#1996FC"/>
<path d="M61.052 88.0418C61.2019 88.3933 61.2769 88.7057 61.2769 88.9791C61.2769 89.5258 61.0613 89.9944 60.6302 90.3849C60.2179 90.7559 59.7399 90.9414 59.1964 90.9414C58.8402 90.9414 58.5029 90.8438 58.1842 90.6485C57.8656 90.4338 57.6219 90.1213 57.4532 89.7113L55.9631 86.2552H46.4321L44.9419 89.7113C44.7733 90.1213 44.5296 90.4338 44.211 90.6485C43.9111 90.8438 43.5737 90.9414 43.1988 90.9414C42.6552 90.9414 42.1679 90.7559 41.7368 90.3849C41.3057 89.9944 41.0902 89.5258 41.0902 88.9791C41.0902 88.7057 41.1651 88.3933 41.3151 88.0418L48.9062 71.4351C49.1124 70.9665 49.4216 70.6151 49.834 70.3808C50.2464 70.1269 50.6868 70 51.1554 70C51.6427 70 52.0926 70.1269 52.5049 70.3808C52.9173 70.6346 53.2359 70.9861 53.4609 71.4351L61.052 88.0418ZM47.9222 82.7992H54.473L51.2116 75.1841L47.9222 82.7992Z" fill="#1996FC"/>
<path d="M67.9958 90.8243C67.3397 90.8243 66.8337 90.6388 66.4775 90.2678C66.1214 89.8968 65.9434 89.3696 65.9434 88.6862V72.2845C65.9434 71.6011 66.1402 71.0544 66.5338 70.6444C66.9274 70.2343 67.4616 70.0293 68.1363 70.0293C68.8111 70.0293 69.3453 70.2343 69.7389 70.6444C70.1325 71.0544 70.3293 71.6011 70.3293 72.2845V87.1046H77.5268C78.8951 87.1046 79.5792 87.7294 79.5792 88.9791C79.5792 90.2092 78.8951 90.8243 77.5268 90.8243H67.9958Z" fill="#1996FC"/>
<path d="M87.2962 90.9707C86.6402 90.9707 86.106 90.7657 85.6936 90.3556C85.3 89.9456 85.1032 89.3989 85.1032 88.7155V73.8954H80.5486C79.1615 73.8954 78.468 73.2706 78.468 72.0209C78.468 70.7908 79.1615 70.1757 80.5486 70.1757H94.0439C95.4309 70.1757 96.1244 70.7908 96.1244 72.0209C96.1244 73.2706 95.4309 73.8954 94.0439 73.8954H89.4892V88.7155C89.4892 89.3989 89.2924 89.9456 88.8988 90.3556C88.5052 90.7657 87.971 90.9707 87.2962 90.9707Z" fill="#1996FC"/>
<path d="M115.835 70.0293C116.491 70.0293 117.016 70.2343 117.41 70.6444C117.803 71.0544 118 71.6011 118 72.2845V88.7155C118 89.3989 117.803 89.9554 117.41 90.3849C117.016 90.795 116.491 91 115.835 91C115.179 91 114.654 90.795 114.261 90.3849C113.886 89.9749 113.698 89.4184 113.698 88.7155V82.1548H104.561V88.7155C104.561 89.3989 104.364 89.9554 103.971 90.3849C103.577 90.795 103.061 91 102.424 91C101.768 91 101.243 90.795 100.85 90.3849C100.456 89.9749 100.259 89.4184 100.259 88.7155V72.2845C100.259 71.6011 100.456 71.0544 100.85 70.6444C101.243 70.2343 101.768 70.0293 102.424 70.0293C103.08 70.0293 103.596 70.2343 103.971 70.6444C104.364 71.0544 104.561 71.6011 104.561 72.2845V78.523H113.698V72.2845C113.698 71.6011 113.886 71.0544 114.261 70.6444C114.654 70.2343 115.179 70.0293 115.835 70.0293Z" fill="#1996FC"/>
<path fill-rule="evenodd" clip-rule="evenodd" d="M34.103 23.927C32.6434 23.5949 31.7332 22.1596 32.0701 20.721C33.4495 14.8305 36.814 9.57465 41.6145 5.81135C46.415 2.04805 52.3679 -0.000511466 58.5018 -2.18475e-07C64.6357 0.000511029 70.5883 2.05006 75.3882 5.81416C80.188 9.57826 83.5516 14.8346 84.93 20.7254C85.2667 22.164 84.3562 23.5993 82.8965 23.931C81.4368 24.2628 79.9806 23.3655 79.6439 21.9269C78.5412 17.2143 75.8503 13.0092 72.0104 9.99789C68.1706 6.98661 63.4085 5.34697 58.5014 5.34656C53.5942 5.34615 48.8319 6.985 44.9915 9.99564C41.1511 13.0063 38.4595 17.2109 37.356 21.9233C37.0191 23.3619 35.5627 24.259 34.103 23.927Z" fill="#1996FC"/>
<path fill-rule="evenodd" clip-rule="evenodd" d="M34.1071 30.0729C35.5668 29.7579 37.0209 30.6184 37.3549 31.9949C38.4508 36.5106 41.1396 40.5418 44.9814 43.4287C48.8233 46.3156 53.5905 47.8872 58.5029 47.8864C63.4153 47.8856 68.1819 46.3124 72.0226 43.4242C75.8634 40.536 78.5507 36.5039 79.6448 31.9879C79.9784 30.6113 81.4322 29.7503 82.892 30.0648C84.3518 30.3793 85.2648 31.7502 84.9313 33.1268C83.5636 38.7719 80.2045 43.8119 75.4035 47.4222C70.6026 51.0324 64.6443 52.999 58.5038 53C52.3633 53.001 46.4043 51.0365 41.602 47.4278C36.7998 43.8192 33.4387 38.7802 32.0689 33.1356C31.7349 31.7591 32.6474 30.3879 34.1071 30.0729Z" fill="#1996FC"/>
<path d="M58.5 39C57.1193 39 56 37.8149 56 36.3529V26.6471C56 25.1851 57.1193 24 58.5 24V24C59.8807 24 61 25.1851 61 26.6471V36.3529C61 37.8149 59.8807 39 58.5 39V39Z" fill="#1996FC"/>
<path d="M58.5 30C57.1193 30 56 28.7359 56 27.1765V16.8235C56 15.2641 57.1193 14 58.5 14V14C59.8807 14 61 15.2641 61 16.8235V27.1765C61 28.7359 59.8807 30 58.5 30V30Z" fill="#1996FC"/>
<path d="M71 27C71 28.6569 69.8487 30 68.4286 30L49.5714 30C48.1513 30 47 28.6569 47 27V27C47 25.3431 48.1513 24 49.5714 24L68.4286 24C69.8487 24 71 25.3431 71 27V27Z" fill="#1996FC"/>
</svg>
